<svg width="25" height="22" viewBox="0 0 25 22" fill="none" xmlns="http://www.w3.org/2000/svg">
<path d="M9.85547 20.2871C9.5013 20.2871 9.19141 20.1183 8.92578 19.7808L3.40576 12.8911C3.31722 12.7804 3.25081 12.6698 3.20654 12.5591C3.16227 12.4429 3.14014 12.3322 3.14014 12.2271C3.14014 11.978 3.22038 11.776 3.38086 11.6211C3.54134 11.4606 3.74886 11.3804 4.00342 11.3804C4.30778 11.3804 4.56787 11.527 4.78369 11.8203L9.81396 18.2119L19.6587 2.65625C19.7638 2.4847 19.8745 2.36572 19.9907 2.29932C20.1069 2.22738 20.2508 2.19141 20.4224 2.19141C20.6769 2.19141 20.8789 2.26888 21.0283 2.42383C21.1833 2.57324 21.2607 2.77523 21.2607 3.02979C21.2607 3.12939 21.2414 3.23177 21.2026 3.33691C21.1694 3.44206 21.1113 3.55827 21.0283 3.68555L10.752 19.7974C10.6468 19.9578 10.5195 20.0796 10.3701 20.1626C10.2207 20.2456 10.0492 20.2871 9.85547 20.2871Z" fill="#EF441D"/>
</svg>
