<svg width="25" height="17" viewBox="0 0 25 17" fill="none" xmlns="http://www.w3.org/2000/svg">
<path d="M0.599609 14.0156V13.0137H3.6582C4.24414 13.0137 4.70117 12.8525 5.0293 12.5303C5.35742 12.2021 5.52148 11.748 5.52148 11.168V6.1582C5.52148 5.57227 5.35742 5.11816 5.0293 4.7959C4.70117 4.47363 4.24414 4.3125 3.6582 4.3125H0.599609V3.31934C0.599609 2.37598 0.842773 1.66406 1.3291 1.18359C1.81543 0.703125 2.5332 0.462891 3.48242 0.462891H11.7969V4.51465C11.0996 4.60254 10.4873 4.83105 9.95996 5.2002C9.43262 5.56934 9.02246 6.0498 8.72949 6.6416C8.43652 7.2334 8.29004 7.90723 8.29004 8.66309C8.29004 9.41309 8.43652 10.084 8.72949 10.6758C9.02246 11.2676 9.43262 11.748 9.95996 12.1172C10.4873 12.4863 11.0996 12.7148 11.7969 12.8027V16.8721H3.48242C2.5332 16.8721 1.81543 16.6289 1.3291 16.1426C0.842773 15.6621 0.599609 14.9531 0.599609 14.0156ZM0.599609 11.6602V5.66602H3.62305C3.98633 5.66602 4.16797 5.84766 4.16797 6.21094V11.1152C4.16797 11.4785 3.98633 11.6602 3.62305 11.6602H0.599609ZM9.58203 8.6543C9.58203 8.16797 9.67578 7.73145 9.86328 7.34473C10.0508 6.95215 10.3086 6.62988 10.6367 6.37793C10.9707 6.12012 11.3574 5.94727 11.7969 5.85938V11.4756C11.3574 11.3877 10.9707 11.2148 10.6367 10.957C10.3086 10.6992 10.0508 10.374 9.86328 9.98145C9.67578 9.58301 9.58203 9.14062 9.58203 8.6543ZM13.1504 16.8721V12.8027C13.8594 12.709 14.4775 12.4775 15.0049 12.1084C15.5381 11.7393 15.9482 11.2617 16.2354 10.6758C16.5283 10.084 16.6689 9.41309 16.6572 8.66309C16.6514 7.9248 16.499 7.2627 16.2002 6.67676C15.9072 6.09082 15.4971 5.61328 14.9697 5.24414C14.4482 4.86914 13.8418 4.63477 13.1504 4.54102V0.462891H21.5088C22.4639 0.462891 23.1816 0.703125 23.6621 1.18359C24.1484 1.66406 24.3916 2.37598 24.3916 3.31934V4.3125H21.333C20.7471 4.3125 20.29 4.47363 19.9619 4.7959C19.6396 5.11816 19.4785 5.57227 19.4785 6.1582V11.168C19.4785 11.748 19.6396 12.2021 19.9619 12.5303C20.29 12.8525 20.7471 13.0137 21.333 13.0137H24.3916V14.0156C24.3916 14.9531 24.1484 15.6621 23.6621 16.1426C23.1816 16.6289 22.4639 16.8721 21.5088 16.8721H13.1504ZM13.1504 11.4756V5.85938C13.5957 5.94141 13.9824 6.11133 14.3105 6.36914C14.6445 6.62695 14.9023 6.95215 15.084 7.34473C15.2715 7.73145 15.3652 8.16797 15.3652 8.6543C15.3594 9.14062 15.2627 9.58008 15.0752 9.97266C14.8936 10.3652 14.6357 10.6934 14.3018 10.957C13.9736 11.2148 13.5898 11.3877 13.1504 11.4756ZM20.832 11.1152V6.21094C20.832 5.84766 21.0107 5.66602 21.3682 5.66602H24.3916V11.6602H21.3682C21.0107 11.6602 20.832 11.4785 20.832 11.1152Z" fill="#80858E"/>
</svg>
