<svg width="24" height="22" viewBox="0 0 24 22" fill="none" xmlns="http://www.w3.org/2000/svg">
<path d="M5.22266 21.5195C4.99479 21.3503 4.85482 21.1224 4.80273 20.8359C4.75716 20.556 4.79948 20.224 4.92969 19.8398L6.94141 13.873L1.81445 10.1914C1.48242 9.95703 1.2513 9.71289 1.12109 9.45898C0.990885 9.19857 0.971354 8.93164 1.0625 8.6582C1.15365 8.39128 1.32617 8.19271 1.58008 8.0625C1.83398 7.92578 2.16602 7.86068 2.57617 7.86719L8.85547 7.90625L10.7695 1.91016C10.8932 1.51953 11.056 1.22331 11.2578 1.02148C11.4661 0.813151 11.7103 0.708984 11.9902 0.708984C12.2767 0.708984 12.5208 0.813151 12.7227 1.02148C12.931 1.22331 13.097 1.51953 13.2207 1.91016L15.1348 7.90625L21.4141 7.86719C21.8242 7.86068 22.1562 7.92578 22.4102 8.0625C22.6641 8.19271 22.8366 8.39128 22.9277 8.6582C23.0189 8.93164 22.9993 9.19857 22.8691 9.45898C22.7389 9.71289 22.5078 9.95703 22.1758 10.1914L17.0488 13.873L19.0605 19.8398C19.1908 20.224 19.2298 20.556 19.1777 20.8359C19.1322 21.1224 18.9954 21.3503 18.7676 21.5195C18.5397 21.7018 18.2826 21.7669 17.9961 21.7148C17.7096 21.6628 17.4036 21.5195 17.0781 21.2852L11.9902 17.5449L6.91211 21.2852C6.58659 21.5195 6.2806 21.6628 5.99414 21.7148C5.70768 21.7669 5.45052 21.7018 5.22266 21.5195Z" fill="#EF441D"/>
</svg>
