<svg width="18" height="24" viewBox="0 0 18 24" fill="none" xmlns="http://www.w3.org/2000/svg">
<path d="M3.375 23.3105C2.32031 23.3105 1.52279 23.0436 0.982422 22.5098C0.442057 21.9759 0.171875 21.1849 0.171875 20.1367V10.7715C0.171875 9.72982 0.442057 8.94206 0.982422 8.4082C1.52279 7.86784 2.32031 7.59766 3.375 7.59766H7.87695V14.707C7.87695 15.013 7.98763 15.2734 8.20898 15.4883C8.43034 15.7031 8.69401 15.8105 9 15.8105C9.3125 15.8105 9.57943 15.7031 9.80078 15.4883C10.0286 15.2734 10.1426 15.013 10.1426 14.707V7.59766H14.625C15.6797 7.59766 16.4772 7.86784 17.0176 8.4082C17.5579 8.94857 17.8281 9.73633 17.8281 10.7715V20.1367C17.8281 21.1784 17.5579 21.9661 17.0176 22.5C16.4772 23.0404 15.6797 23.3105 14.625 23.3105H3.375ZM9 8.60352C8.7526 8.60352 8.54102 8.51562 8.36523 8.33984C8.18945 8.16406 8.10156 7.95573 8.10156 7.71484V4.80469L8.17969 3.34961L7.56445 4.0625L6.19727 5.52734C6.04102 5.70312 5.83919 5.79102 5.5918 5.79102C5.36393 5.79102 5.17188 5.7194 5.01562 5.57617C4.86589 5.42643 4.79102 5.23763 4.79102 5.00977C4.79102 4.80143 4.8724 4.60938 5.03516 4.43359L8.31641 1.2793C8.4401 1.16211 8.55404 1.08073 8.6582 1.03516C8.76888 0.989583 8.88281 0.966797 9 0.966797C9.1237 0.966797 9.24089 0.989583 9.35156 1.03516C9.46224 1.08073 9.57617 1.16211 9.69336 1.2793L12.9648 4.43359C13.1406 4.60938 13.2285 4.80143 13.2285 5.00977C13.2285 5.23763 13.1471 5.42643 12.9844 5.57617C12.8281 5.7194 12.6393 5.79102 12.418 5.79102C12.1771 5.79102 11.9753 5.70312 11.8125 5.52734L10.4453 4.0625L9.83984 3.34961L9.91797 4.80469V7.71484C9.91797 7.95573 9.82682 8.16406 9.64453 8.33984C9.46875 8.51562 9.25391 8.60352 9 8.60352Z" fill="#EF441D"/>
</svg>
