<svg width="78" height="44" viewBox="0 0 78 44" fill="none" xmlns="http://www.w3.org/2000/svg">
<path d="M9.61035 22.0068C9.61589 21.8132 9.65462 21.6361 9.72656 21.4756C9.7985 21.3151 9.90918 21.1602 10.0586 21.0107L18.376 12.959C18.6139 12.721 18.9072 12.6021 19.2559 12.6021C19.4883 12.6021 19.6986 12.6574 19.8867 12.7681C20.0804 12.8787 20.2326 13.0282 20.3433 13.2163C20.4595 13.4045 20.5176 13.6147 20.5176 13.8472C20.5176 14.1903 20.3875 14.4919 20.1274 14.752L12.6069 21.9985L20.1274 29.2534C20.3875 29.519 20.5176 29.8206 20.5176 30.1582C20.5176 30.3962 20.4595 30.6092 20.3433 30.7974C20.2326 30.9855 20.0804 31.1349 19.8867 31.2456C19.6986 31.3618 19.4883 31.4199 19.2559 31.4199C18.9072 31.4199 18.6139 31.2982 18.376 31.0547L10.0586 23.0029C9.90365 22.8535 9.7902 22.6986 9.71826 22.5381C9.64632 22.3721 9.61035 22.195 9.61035 22.0068Z" fill="#EF441D"/>
<path d="M30.2744 28V26.6802H33.9766C34.8786 26.6802 35.562 26.5003 36.0269 26.1406C36.4917 25.7809 36.7241 25.258 36.7241 24.5718V24.5552C36.7241 24.0959 36.6162 23.7113 36.4004 23.4014C36.1846 23.0915 35.8608 22.859 35.4292 22.7041C35.0031 22.5492 34.4718 22.4717 33.8354 22.4717H30.2744V21.1851H33.4121C34.3197 21.1851 35.0003 21.0246 35.4541 20.7036C35.9134 20.3826 36.1431 19.9067 36.1431 19.2759V19.2593C36.1431 18.6506 35.9355 18.1802 35.5205 17.8481C35.111 17.5106 34.5355 17.3418 33.7939 17.3418H30.2744V16.022H34.1094C34.8454 16.022 35.4762 16.1437 36.002 16.3872C36.5332 16.6307 36.9399 16.9766 37.2222 17.4248C37.5099 17.8675 37.6538 18.3932 37.6538 19.002V19.0186C37.6538 19.4336 37.5597 19.8237 37.3716 20.189C37.189 20.5542 36.9427 20.8613 36.6328 21.1104C36.3229 21.3594 35.9743 21.5199 35.5869 21.5918V21.7246C36.1348 21.791 36.6079 21.9543 37.0063 22.2144C37.4048 22.4744 37.7119 22.812 37.9277 23.2271C38.1491 23.6366 38.2598 24.1042 38.2598 24.6299V24.6465C38.2598 25.3438 38.0965 25.9442 37.77 26.4478C37.4491 26.9458 36.987 27.3304 36.3838 27.6016C35.7806 27.8672 35.0529 28 34.2007 28H30.2744ZM29.5273 28V16.022H31.0215V28H29.5273ZM42.5746 28.1577C42.0102 28.1577 41.501 28.0498 41.0473 27.834C40.599 27.6182 40.2421 27.311 39.9765 26.9126C39.7164 26.5142 39.5863 26.0438 39.5863 25.5015V25.4849C39.5863 24.9536 39.7136 24.4998 39.9682 24.1235C40.2227 23.7417 40.5935 23.4429 41.0805 23.2271C41.5674 23.0112 42.1568 22.884 42.8485 22.8452L46.1356 22.646V23.7998L43.0229 23.999C42.3422 24.0378 41.8441 24.1789 41.5287 24.4224C41.2188 24.6659 41.0639 25.009 41.0639 25.4517V25.4683C41.0639 25.922 41.2354 26.2762 41.5785 26.5308C41.9216 26.7798 42.3533 26.9043 42.8734 26.9043C43.366 26.9043 43.8031 26.8075 44.185 26.6138C44.5668 26.4146 44.8656 26.1462 45.0814 25.8086C45.3028 25.471 45.4135 25.0892 45.4135 24.6631V21.874C45.4135 21.3206 45.2447 20.9001 44.9071 20.6123C44.5751 20.319 44.0743 20.1724 43.4047 20.1724C42.8679 20.1724 42.428 20.2692 42.0849 20.4629C41.7418 20.651 41.5121 20.9194 41.3959 21.2681L41.3876 21.293H39.9433L39.9516 21.2432C40.029 20.7728 40.2227 20.3633 40.5326 20.0146C40.848 19.6605 41.2548 19.3866 41.7528 19.1929C42.2509 18.9937 42.8181 18.894 43.4545 18.894C44.185 18.894 44.802 19.013 45.3056 19.251C45.8147 19.4889 46.1993 19.832 46.4594 20.2803C46.725 20.723 46.8578 21.2542 46.8578 21.874V28H45.4135V26.6802H45.2807C45.0925 26.9956 44.8629 27.264 44.5917 27.4854C44.3261 27.7067 44.0245 27.8755 43.6869 27.9917C43.3493 28.1024 42.9786 28.1577 42.5746 28.1577ZM52.7581 28.1577C51.9225 28.1577 51.1976 27.9668 50.5833 27.585C49.969 27.2031 49.4931 26.6636 49.1556 25.9663C48.818 25.269 48.6492 24.4473 48.6492 23.501V23.4844C48.6492 22.5547 48.8152 21.7467 49.1473 21.0605C49.4848 20.3743 49.9607 19.8431 50.575 19.4668C51.1893 19.085 51.9142 18.894 52.7498 18.894C53.4747 18.894 54.1001 19.0213 54.6258 19.2759C55.1515 19.5304 55.5721 19.8735 55.8875 20.3052C56.2029 20.7313 56.4049 21.21 56.4935 21.7412L56.5018 21.791H55.0657L55.0574 21.7661C54.9467 21.3234 54.695 20.9471 54.3021 20.6372C53.9091 20.3273 53.3917 20.1724 52.7498 20.1724C52.213 20.1724 51.7482 20.3079 51.3553 20.5791C50.9624 20.8503 50.658 21.2349 50.4422 21.7329C50.2319 22.2254 50.1268 22.8092 50.1268 23.4844V23.501C50.1268 24.1872 50.2347 24.7848 50.4505 25.2939C50.6663 25.7975 50.9707 26.1877 51.3636 26.4644C51.7565 26.741 52.2186 26.8794 52.7498 26.8794C53.353 26.8794 53.8455 26.7493 54.2273 26.4893C54.6092 26.2292 54.8831 25.8501 55.0491 25.3521L55.0657 25.3022L56.4935 25.2939L56.4769 25.3853C56.3551 25.922 56.1393 26.4007 55.8294 26.8213C55.5195 27.2363 55.11 27.5628 54.6009 27.8008C54.0918 28.0387 53.4775 28.1577 52.7581 28.1577ZM58.2932 28V15.499H59.7375V28H58.2932ZM63.9294 28L60.4348 23.6172L61.4973 22.6958L65.7473 28H63.9294ZM59.5549 24.7793L59.4885 22.9614H59.8703L63.7385 19.0518H65.4899L61.2399 23.1523L60.8913 23.4927L59.5549 24.7793Z" fill="#EF441D"/>
</svg>
