<svg width="22" height="17" viewBox="0 0 22 17" fill="none" xmlns="http://www.w3.org/2000/svg">
<path d="M5.20801 5.65723C5.02637 5.65723 4.86816 5.58984 4.7334 5.45508C4.59863 5.32031 4.53125 5.15918 4.53125 4.97168C4.53125 4.78418 4.5957 4.62305 4.72461 4.48828C4.85938 4.35352 5.02051 4.28613 5.20801 4.28613H6.20996C6.39746 4.28613 6.55859 4.35352 6.69336 4.48828C6.83398 4.62305 6.9043 4.78418 6.9043 4.97168C6.9043 5.16504 6.83398 5.3291 6.69336 5.46387C6.55859 5.59277 6.39746 5.65723 6.20996 5.65723H5.20801ZM5.20801 8.54004C5.02051 8.54004 4.85938 8.47559 4.72461 8.34668C4.5957 8.21191 4.53125 8.05078 4.53125 7.86328C4.53125 7.66992 4.5957 7.50879 4.72461 7.37988C4.85938 7.24512 5.02051 7.17773 5.20801 7.17773H6.20996C6.40332 7.17773 6.56738 7.24512 6.70215 7.37988C6.83691 7.50879 6.9043 7.66992 6.9043 7.86328C6.9043 8.05078 6.83398 8.21191 6.69336 8.34668C6.55859 8.47559 6.39746 8.54004 6.20996 8.54004H5.20801ZM8.63574 5.55176C8.47168 5.55176 8.33398 5.49609 8.22266 5.38477C8.11719 5.27344 8.06445 5.13574 8.06445 4.97168C8.06445 4.81348 8.12012 4.68164 8.23145 4.57617C8.34277 4.46484 8.47754 4.40918 8.63574 4.40918H16.8799C17.0381 4.40918 17.1699 4.46484 17.2754 4.57617C17.3867 4.68164 17.4424 4.81348 17.4424 4.97168C17.4424 5.13574 17.3867 5.27344 17.2754 5.38477C17.1699 5.49609 17.0381 5.55176 16.8799 5.55176H8.63574ZM8.63574 8.43457C8.47168 8.43457 8.33398 8.37891 8.22266 8.26758C8.11719 8.15625 8.06445 8.02148 8.06445 7.86328C8.06445 7.69922 8.12012 7.56152 8.23145 7.4502C8.34277 7.33887 8.47754 7.2832 8.63574 7.2832H16.8799C17.0381 7.2832 17.1699 7.3418 17.2754 7.45898C17.3867 7.57031 17.4424 7.70508 17.4424 7.86328C17.4424 8.02734 17.3867 8.16504 17.2754 8.27637C17.1699 8.38184 17.0381 8.43457 16.8799 8.43457H8.63574ZM3.46777 16.8633C2.51855 16.8633 1.80078 16.623 1.31445 16.1426C0.828125 15.6621 0.584961 14.9531 0.584961 14.0156V3.31055C0.584961 2.37305 0.828125 1.66406 1.31445 1.18359C1.80078 0.697266 2.51855 0.454102 3.46777 0.454102H18.5146C19.4697 0.454102 20.1904 0.697266 20.6768 1.18359C21.1631 1.66406 21.4062 2.37305 21.4062 3.31055V14.0156C21.4062 14.9531 21.1631 15.6621 20.6768 16.1426C20.1904 16.623 19.4697 16.8633 18.5146 16.8633H3.46777ZM3.57324 15.1406H18.418C18.8223 15.1406 19.1328 15.0352 19.3496 14.8242C19.5664 14.6074 19.6748 14.2881 19.6748 13.8662V3.45996C19.6748 3.03809 19.5664 2.72168 19.3496 2.51074C19.1328 2.29395 18.8223 2.18555 18.418 2.18555H3.57324C3.16309 2.18555 2.84961 2.29395 2.63281 2.51074C2.42188 2.72168 2.31641 3.03809 2.31641 3.45996V13.8662C2.31641 14.2881 2.42188 14.6074 2.63281 14.8242C2.84961 15.0352 3.16309 15.1406 3.57324 15.1406Z" fill="#EF441D"/>
</svg>
