<svg width="21" height="16" viewBox="0 0 21 16" fill="none" xmlns="http://www.w3.org/2000/svg">
<path d="M19.335 12.6387C19.335 13.4355 19.1468 14.0387 18.7705 14.4482C18.3942 14.8633 17.8298 15.0708 17.0771 15.0708H3.16504C2.54525 15.0708 2.0804 14.8799 1.77051 14.498C1.46061 14.1217 1.29183 13.5573 1.26416 12.8047L4.42676 9.94922C4.59831 9.78874 4.77262 9.67253 4.94971 9.60059C5.12679 9.52311 5.30941 9.48438 5.49756 9.48438C5.69124 9.48438 5.88216 9.52588 6.07031 9.60889C6.264 9.68636 6.44661 9.80257 6.61816 9.95752L8.15381 11.3438L11.9058 7.99023C12.0994 7.82422 12.2987 7.69971 12.5034 7.6167C12.7082 7.53369 12.924 7.49219 13.1509 7.49219C13.3778 7.49219 13.5964 7.53646 13.8066 7.625C14.0225 7.70801 14.2217 7.83529 14.4043 8.00684L19.335 12.6387ZM6.80078 8.08984C6.44108 8.08984 6.11182 8.00407 5.81299 7.83252C5.51969 7.65544 5.28451 7.41748 5.10742 7.11865C4.93034 6.81982 4.8418 6.49056 4.8418 6.13086C4.8418 5.77669 4.93034 5.4502 5.10742 5.15137C5.28451 4.85254 5.51969 4.61458 5.81299 4.4375C6.11182 4.26042 6.44108 4.17188 6.80078 4.17188C7.16048 4.17188 7.48698 4.26042 7.78027 4.4375C8.07357 4.61458 8.30876 4.85254 8.48584 5.15137C8.66292 5.4502 8.75146 5.77669 8.75146 6.13086C8.75146 6.49056 8.66292 6.81982 8.48584 7.11865C8.30876 7.41748 8.07357 7.65544 7.78027 7.83252C7.48698 8.00407 7.16048 8.08984 6.80078 8.08984ZM3.22314 15.6519C2.35433 15.6519 1.70133 15.436 1.26416 15.0044C0.83252 14.5783 0.616699 13.9391 0.616699 13.0869V2.94336C0.616699 2.08561 0.83252 1.44368 1.26416 1.01758C1.70133 0.585938 2.35433 0.370117 3.22314 0.370117H17.5835C18.4578 0.370117 19.1108 0.585938 19.5425 1.01758C19.9741 1.44922 20.1899 2.09115 20.1899 2.94336V13.0869C20.1899 13.9391 19.9741 14.5783 19.5425 15.0044C19.1108 15.436 18.4578 15.6519 17.5835 15.6519H3.22314ZM3.23975 14.3154H17.5669C17.9764 14.3154 18.2918 14.2075 18.5132 13.9917C18.7401 13.7703 18.8535 13.4438 18.8535 13.0122V3.01807C18.8535 2.58643 18.7401 2.25993 18.5132 2.03857C18.2918 1.81722 17.9764 1.70654 17.5669 1.70654H3.23975C2.82471 1.70654 2.50651 1.81722 2.28516 2.03857C2.0638 2.25993 1.95312 2.58643 1.95312 3.01807V13.0122C1.95312 13.4438 2.0638 13.7703 2.28516 13.9917C2.50651 14.2075 2.82471 14.3154 3.23975 14.3154Z" fill="#80858E"/>
</svg>
